<?xml version="1.0" encoding="UTF-8" standalone="no"?>
<!-- Generator: Adobe Illustrator 21.0.0, SVG Export Plug-In . SVG Version: 6.00 Build 0)  -->

<svg
   xmlns:dc="http://purl.org/dc/elements/1.1/"
   xmlns:cc="http://creativecommons.org/ns#"
   xmlns:rdf="http://www.w3.org/1999/02/22-rdf-syntax-ns#"
   xmlns:svg="http://www.w3.org/2000/svg"
   xmlns="http://www.w3.org/2000/svg"
   xmlns:sodipodi="http://sodipodi.sourceforge.net/DTD/sodipodi-0.dtd"
   xmlns:inkscape="http://www.inkscape.org/namespaces/inkscape"
   version="1.1"
   id="Capa_1"
   x="0px"
   y="0px"
   viewBox="0 0 512 512"
   style="enable-background:new 0 0 512 512;"
   xml:space="preserve"
   sodipodi:docname="date.svg"
   inkscape:version="0.92.3 (2405546, 2018-03-11)"><metadata
   id="metadata61"><rdf:RDF><cc:Work
       rdf:about=""><dc:format>image/svg+xml</dc:format><dc:type
         rdf:resource="http://purl.org/dc/dcmitype/StillImage" /></cc:Work></rdf:RDF></metadata><defs
   id="defs59" /><sodipodi:namedview
   pagecolor="#ffffff"
   bordercolor="#666666"
   borderopacity="1"
   objecttolerance="10"
   gridtolerance="10"
   guidetolerance="10"
   inkscape:pageopacity="0"
   inkscape:pageshadow="2"
   inkscape:window-width="1920"
   inkscape:window-height="1017"
   id="namedview57"
   showgrid="false"
   inkscape:zoom="0.4609375"
   inkscape:cx="256"
   inkscape:cy="256"
   inkscape:window-x="-8"
   inkscape:window-y="-8"
   inkscape:window-maximized="1"
   inkscape:current-layer="Capa_1" />
<g
   id="g24"
   style="fill:#2c9d54;fill-opacity:1">
	<g
   id="g22"
   style="fill:#2c9d54;fill-opacity:1">
		<g
   id="g20"
   style="fill:#2c9d54;fill-opacity:1">
			<path
   d="M477.867,51.197H460.8c-4.713,0-8.533,3.82-8.533,8.533s3.821,8.533,8.533,8.533h17.067     c9.426,0,17.067,7.641,17.067,17.067v68.267H17.067V85.331c0-9.426,7.641-17.067,17.067-17.067h8.533v17.067     c-0.019,16.64,11.963,30.87,28.364,33.682c16.401,2.813,32.44-6.611,37.966-22.307c1.569-4.444-0.761-9.319-5.205-10.888     c-4.444-1.569-9.319,0.761-10.889,5.205c-2.759,7.855-10.783,12.574-18.989,11.165s-14.198-8.532-14.18-16.857v-51.2     c0.008-6.894,4.164-13.106,10.533-15.746c6.369-2.639,13.7-1.188,18.583,3.68c1.8,1.805,3.181,3.984,4.045,6.383     c1.613,4.387,6.454,6.66,10.86,5.099s6.735-6.376,5.226-10.799c-1.714-4.788-4.464-9.139-8.055-12.74     C91.162,0.255,76.489-2.66,63.741,2.619C50.993,7.898,42.677,20.333,42.667,34.131v17.067h-8.533     C15.282,51.197,0,66.479,0,85.331v392.533c0,18.851,15.282,34.133,34.133,34.133h443.733c18.851,0,34.133-15.282,34.133-34.133     V85.331C512,66.479,496.718,51.197,477.867,51.197z M494.933,477.864c0,9.426-7.641,17.067-17.067,17.067H34.133     c-9.426,0-17.067-7.641-17.067-17.067v-307.2h477.867V477.864z"
   id="path2"
   style="fill:#2c9d54;fill-opacity:1" />
			<path
   d="M93.867,59.731c0,4.713,3.82,8.533,8.533,8.533h59.733v17.067c0,18.851,15.282,34.133,34.133,34.133     c14.46-0.017,27.346-9.13,32.179-22.758c1.167-2.908,0.646-6.222-1.357-8.632c-2.003-2.41-5.166-3.528-8.239-2.912     c-3.073,0.616-5.561,2.866-6.481,5.862c-2.759,7.855-10.783,12.574-18.989,11.165c-8.206-1.408-14.198-8.532-14.18-16.857v-51.2     c-0.018-8.326,5.974-15.449,14.18-16.857c8.206-1.408,16.23,3.31,18.989,11.165c0.92,2.996,3.408,5.246,6.481,5.862     c3.073,0.616,6.236-0.503,8.239-2.912c2.003-2.41,2.524-5.724,1.357-8.632c-5.543-15.67-21.568-25.069-37.95-22.259     s-28.358,17.012-28.363,33.633v17.067H102.4C97.687,51.197,93.867,55.018,93.867,59.731z"
   id="path4"
   style="fill:#2c9d54;fill-opacity:1" />
			<path
   d="M213.333,59.731c0,4.713,3.82,8.533,8.533,8.533H281.6v17.067c0,18.851,15.282,34.133,34.133,34.133     c14.46-0.017,27.346-9.13,32.179-22.758c1.167-2.908,0.646-6.222-1.357-8.632c-2.003-2.41-5.166-3.528-8.239-2.912     c-3.073,0.616-5.561,2.866-6.481,5.862c-2.759,7.855-10.783,12.574-18.989,11.165c-8.206-1.408-14.198-8.532-14.18-16.857v-51.2     c-0.018-8.326,5.974-15.449,14.18-16.857c8.206-1.408,16.23,3.31,18.989,11.165c0.92,2.996,3.408,5.246,6.481,5.862     c3.073,0.616,6.236-0.503,8.239-2.912c2.003-2.41,2.524-5.724,1.357-8.632c-5.543-15.67-21.568-25.069-37.95-22.259     S281.604,17.509,281.6,34.131v17.067h-59.733C217.154,51.197,213.333,55.018,213.333,59.731z"
   id="path6"
   style="fill:#2c9d54;fill-opacity:1" />
			<path
   d="M332.8,59.731c0,4.713,3.821,8.533,8.533,8.533h59.733v17.067c0.004,16.621,11.98,30.823,28.363,33.633     s32.407-6.589,37.95-22.259c1.167-2.908,0.646-6.222-1.357-8.632c-2.003-2.41-5.166-3.528-8.239-2.912     c-3.073,0.616-5.561,2.866-6.481,5.862c-2.759,7.855-10.783,12.574-18.989,11.165c-8.206-1.408-14.198-8.532-14.18-16.857v-51.2     c-0.018-8.326,5.974-15.449,14.18-16.857c8.206-1.408,16.23,3.31,18.989,11.165c0.92,2.996,3.408,5.246,6.481,5.862     c3.073,0.616,6.236-0.503,8.239-2.912c2.003-2.41,2.524-5.724,1.357-8.632c-5.543-15.67-21.568-25.069-37.95-22.259     s-28.358,17.012-28.363,33.633v17.067h-59.733C336.621,51.197,332.8,55.018,332.8,59.731z"
   id="path8"
   style="fill:#2c9d54;fill-opacity:1" />
			<path
   d="M42.667,298.664H51.2v119.467c0,4.713,3.82,8.533,8.533,8.533h34.133c4.713,0,8.533-3.82,8.533-8.533V247.464     c0-2.742-1.318-5.317-3.541-6.921c-2.222-1.603-5.079-2.041-7.68-1.178l-51.2,17.067c-3.49,1.158-5.845,4.421-5.845,8.098v25.6     C34.133,294.844,37.954,298.664,42.667,298.664z M51.2,270.683L85.333,259.3v150.298H68.267V290.131     c0-4.713-3.82-8.533-8.533-8.533H51.2V270.683z"
   id="path10"
   style="fill:#2c9d54;fill-opacity:1" />
			<path
   d="M128,375.464h34.133v42.667c0,4.713,3.82,8.533,8.533,8.533h51.2c4.713,0,8.533-3.82,8.533-8.533v-42.667h17.067     c4.713,0,8.533-3.82,8.533-8.533v-51.2c0-4.713-3.82-8.533-8.533-8.533h-8.533v-59.733c0-4.713-3.82-8.533-8.533-8.533h-46.541     c-2.835-0.001-5.486,1.406-7.074,3.755l-55.859,82.714c-0.951,1.409-1.459,3.07-1.459,4.77v36.762     C119.467,371.643,123.287,375.464,128,375.464z M136.533,332.797l51.857-76.8h33.476v59.733c0,4.713,3.82,8.533,8.533,8.533     h8.533v34.133h-17.067c-4.713,0-8.533,3.82-8.533,8.533v42.667H179.2v-42.667c0-4.713-3.82-8.533-8.533-8.533h-34.133V332.797z"
   id="path12"
   style="fill:#2c9d54;fill-opacity:1" />
			<path
   d="M204.8,332.797c0-4.713-3.82-8.533-8.533-8.533h-18.193l19.627-29.397c1.692-2.536,1.902-5.783,0.552-8.516     c-1.351-2.734-4.057-4.539-7.1-4.736s-5.959,1.244-7.651,3.781l-28.442,42.667c-1.745,2.615-1.91,5.977-0.432,8.75     c1.479,2.774,4.363,4.51,7.506,4.519h34.133C200.979,341.331,204.8,337.51,204.8,332.797z"
   id="path14"
   style="fill:#2c9d54;fill-opacity:1" />
			<path
   d="M290.133,460.797c4.713,0,8.533-3.821,8.533-8.533V213.331c0-4.713-3.82-8.533-8.533-8.533s-8.533,3.821-8.533,8.533     v238.933C281.6,456.977,285.421,460.797,290.133,460.797z"
   id="path16"
   style="fill:#2c9d54;fill-opacity:1" />
			<path
   d="M359.006,440.556c-1.58,3.977-3.393,7.858-5.427,11.622l-0.051,0.085h-12.194c-4.713,0-8.533,3.821-8.533,8.533     s3.821,8.533,8.533,8.533h102.4c4.713,0,8.533-3.82,8.533-8.533s-3.82-8.533-8.533-8.533h-12.194     c-8.56-15.725-13.162-33.298-13.406-51.2c0-26.377,16.802-70.511,23.04-85.88c11.118-9.969,14.295-26.093,7.791-39.535     c6.39-18.271,3.523-38.506-7.691-54.282c-11.215-15.776-29.383-25.134-48.74-25.103c-32.99,0-59.733,26.744-59.733,59.733     s26.744,59.733,59.733,59.733c0.922,0,2.014,0,3.157-0.085c6.174,5.523,14.159,8.589,22.443,8.619     c0.435,0,0.853-0.111,1.263-0.128c-8.149,22.127-18.33,54.281-18.33,76.928c0.168,17.681,4.065,35.127,11.435,51.2h-39.97     c0.794-1.766,1.596-3.533,2.33-5.359c2.628-6.569,4.725-13.337,6.272-20.241c1.885-8.404,2.846-16.988,2.867-25.6     c-0.263-10.452-1.677-20.842-4.215-30.985c-2.185-9.464-5.214-20.045-9.028-31.445c-0.963-2.896-3.399-5.058-6.389-5.672     c-2.99-0.614-6.08,0.414-8.107,2.697c-2.027,2.282-2.681,5.473-1.718,8.369c3.627,10.897,6.511,20.949,8.576,29.867     c2.258,8.891,3.537,18.002,3.814,27.17c-0.021,7.361-0.848,14.698-2.466,21.879C363.128,428.953,361.302,434.843,359.006,440.556     z M384,290.131c0.022,2.617,0.349,5.223,0.973,7.765c-20.287-3.653-35.061-21.286-35.106-41.899     c0-23.564,19.102-42.667,42.667-42.667c23.564,0,42.667,19.102,42.667,42.667c-0.07,1.508-0.219,3.012-0.444,4.506     c-5.058-2.915-10.785-4.467-16.623-4.506C399.282,255.997,384,271.279,384,290.131z M418.133,307.197     c-9.426,0-17.067-7.641-17.067-17.067s7.641-17.067,17.067-17.067s17.067,7.641,17.067,17.067S427.559,307.197,418.133,307.197z"
   id="path18"
   style="fill:#2c9d54;fill-opacity:1" />
		</g>
	</g>
</g>
<g
   id="g26">
</g>
<g
   id="g28">
</g>
<g
   id="g30">
</g>
<g
   id="g32">
</g>
<g
   id="g34">
</g>
<g
   id="g36">
</g>
<g
   id="g38">
</g>
<g
   id="g40">
</g>
<g
   id="g42">
</g>
<g
   id="g44">
</g>
<g
   id="g46">
</g>
<g
   id="g48">
</g>
<g
   id="g50">
</g>
<g
   id="g52">
</g>
<g
   id="g54">
</g>
</svg>